# xmcd
#
# Track frame offsets: 
#        150
#        16731
#        33222
#        48397
#        68466
#        82553
#        97901
#        113590
#        127296
#        141898
#        158595
#        173209
#        187675
#        203678
#
# Disc length: 2980 seconds
#
# Revision: 0
# Processed by: cddbd v1.5.2PL0 Copyright (c) Steve Scherf et al.
# Submitted via: ExactAudioCopy v1.1
#
DISCID=9c0ba20e
DTITLE=Frans Bauer - Ik Heb Je Lief
DYEAR=2019
DGENRE=Chanson
TTITLE0=Leugentje Om Bestwil
TTITLE1=Zevende Hemel
TTITLE2=Liefde Van M'n Leven
TTITLE3=Amore Goodbye
TTITLE4=De Bom
TTITLE5=Ik Heb Je Lief
TTITLE6=Woonwagen Mama
TTITLE7=Want Liefde Is
TTITLE8=Zoek Het Licht
TTITLE9=Mijn Hart Is Alleen Voor Jou
TTITLE10=Het Hele Leven Is Een Feestje
TTITLE11=Duizend En Eén Nacht
TTITLE12=Vandaag Vieren Wij Het Leven
TTITLE13=Ik Mis Je Elke Dag
EXTD=
EXTT0=
EXTT1=
EXTT2=
EXTT3=
EXTT4=
EXTT5=
EXTT6=
EXTT7=
EXTT8=
EXTT9=
EXTT10=
EXTT11=
EXTT12=
EXTT13=
PLAYORDER=
